HIERARCHY
ROOT Hips
{
	OFFSET 0.000000 0.000000 0.000000
	CHANNELS 6 Xposition Yposition Zposition Zrotation Yrotation Xrotation 
	JOINT LHipJoint
	{
		OFFSET 0.000000 0.000000 0.000000
		CHANNELS 3 Zrotation Yrotation Xrotation
		JOINT LeftUpLeg
		{
			OFFSET 1.363060 -1.794630 0.839290
			CHANNELS 3 Zrotation Yrotation Xrotation
			JOINT LeftLeg
			{
				OFFSET 2.448110 -6.726130 0.000000
				CHANNELS 3 Zrotation Yrotation Xrotation
				JOINT LeftFoot
				{
					OFFSET 2.562200 -7.039590 0.000000
					CHANNELS 3 Zrotation Yrotation Xrotation
					JOINT LeftToeBase
					{
						OFFSET 0.157640 -0.433110 2.322550
						CHANNELS 3 Zrotation Yrotation Xrotation
						End Site
						{
							OFFSET 0.000000 0.000000 0.000000
						}
					}
				}
			}
		}
	}
	JOINT RHipJoint
	{
		OFFSET 0.000000 0.000000 0.000000
		CHANNELS 3 Zrotation Yrotation Xrotation
		JOINT RightUpLeg
		{
			OFFSET -1.305520 -1.794630 0.839290
			CHANNELS 3 Zrotation Yrotation Xrotation
			JOINT RightLeg
			{
				OFFSET -2.542530 -6.985550 0.000000
				CHANNELS 3 Zrotation Yrotation Xrotation
				JOINT RightFoot
				{
					OFFSET -2.568260 -7.056230 0.000000
					CHANNELS 3 Zrotation Yrotation Xrotation
					JOINT RightToeBase
					{
						OFFSET -0.164730 -0.452590 2.363150
						CHANNELS 3 Zrotation Yrotation Xrotation
						End Site
						{
							OFFSET 0.000000 0.000000 0.000000
						}
					}
				}
			}
		}
	}
}
MOTION
Frames: 28
Frame Time: 0.008333
8.845943 15.670452 1.922217 2.715660 39.428691 23.028396 -12.103739 2.151032 0.827276 1.009402 5.831249 -38.432731 3.070649 4.606463 88.809500 2.177417 10.526313 8.863931 2.278001 0.000000 -37.774900 8.336018 -1.567724 6.244150 20.591873 18.150514 -31.613805 2.737663 -2.269251 48.578455 -2.182695 4.487319 -38.071403 -179.950900 0.000000 -29.988200
8.977836 15.719383 2.014780 2.722059 38.773641 23.313086 -11.980601 1.871561 1.098149 1.295494 4.295966 -39.771950 3.044552 4.526855 88.259720 2.149653 10.703385 7.217155 2.115900 0.000001 -35.723800 8.442079 -1.591372 6.054033 20.128857 17.748646 -30.595795 2.834418 -2.151766 47.398947 -1.975532 5.412155 -37.571327 179.619700 0.000000 -29.247400
9.111726 15.783534 2.115368 2.772849 38.161830 23.625734 -11.830771 1.601398 1.378593 1.544951 2.876497 -41.038066 2.970050 4.415998 87.331497 2.153078 11.082543 5.736002 2.014700 0.000000 -33.838000 8.559089 -1.631411 5.863420 19.611854 17.225047 -29.501165 2.931408 -2.012286 45.955817 -1.743115 6.346199 -36.827677 179.196801 0.000000 -28.309100
9.248485 15.862321 2.224286 2.850083 37.588642 23.957538 -11.658472 1.342945 1.665859 1.753823 1.597022 -42.227799 2.852771 4.275594 86.029275 2.186495 11.629803 4.435662 1.959800 0.000000 -32.195500 8.683017 -1.689224 5.682471 19.055744 16.600879 -28.342607 3.022873 -1.852968 44.264649 -1.491822 7.242074 -35.825010 178.812200 0.000000 -27.299400
9.388106 15.955359 2.341546 2.958118 37.052758 24.300632 -11.463846 1.101816 1.954540 1.897840 0.459972 -43.314861 2.698371 4.106155 84.350704 2.246771 12.308745 3.315310 1.940300 0.000000 -30.827399 8.818804 -1.763757 5.510076 18.457527 15.870502 -27.117765 3.103435 -1.676622 42.341206 -1.223766 8.077001 -34.546563 178.485100 0.000001 -26.357500
9.530995 16.061557 2.466883 3.065576 36.551381 24.637519 -11.254618 0.879076 2.239496 1.994595 -0.516141 -44.291363 2.514452 3.911976 82.302114 2.326720 13.056527 2.360773 1.943100 -0.000000 -29.743300 8.957591 -1.855454 5.356631 17.848224 15.080657 -25.828413 3.169220 -1.485817 40.192520 -0.945756 8.813356 -32.975672 178.241700 0.000000 -25.667800
9.674239 16.181528 2.601301 3.252860 36.055439 24.953865 -11.011544 0.692897 2.494115 1.927510 -1.344688 -45.025961 2.299871 3.686214 79.837530 2.420417 13.845294 1.560447 1.965700 0.000000 -28.894200 9.139493 -1.955701 5.195007 17.138767 14.165878 -24.410698 3.212436 -1.287750 37.838500 -0.647720 9.499778 -31.088693 178.065600 0.000000 -25.289500
9.823152 16.311011 2.741994 3.348017 35.620233 25.245034 -10.784649 0.521030 2.755526 1.907712 -2.008558 -45.699570 2.074754 3.449679 77.039801 2.513850 14.547866 0.898435 1.990400 0.000000 -28.262500 9.286936 -2.079193 5.080987 16.525558 13.305760 -22.973919 3.237276 -1.080176 35.272147 -0.354883 10.031868 -28.860532 178.016700 0.000000 -25.336600
9.974709 16.450011 2.889533 3.436277 35.221170 25.499284 -10.555197 0.381302 2.998108 1.823059 -2.532101 -46.182135 1.837051 3.196262 73.865719 2.598652 15.131950 0.382823 2.021700 0.000000 -27.809900 9.440434 -2.217319 4.982932 15.919022 12.433157 -21.453024 3.237199 -0.872425 32.517477 -0.057824 10.472127 -26.260813 178.071400 -0.000000 -25.659600
10.128325 16.596952 3.043337 3.533142 34.862434 25.713630 -10.325629 0.279382 3.219230 1.658405 -2.940288 -46.445660 1.590991 2.928092 70.312633 2.664438 15.543986 0.035512 2.063700 -0.000001 -27.514599 9.605296 -2.368656 4.892916 15.311186 11.541775 -19.847603 3.209944 -0.672348 29.601381 0.239822 10.844105 -23.269709 178.229700 -0.000001 -26.173700
10.283648 16.749567 3.202608 3.646148 34.551420 25.887908 -10.098994 0.218807 3.417835 1.409782 -3.256428 -46.478561 1.340696 2.648628 66.389089 2.700782 15.737897 -0.109200 2.123800 -0.000000 -27.392500 9.784276 -2.532454 4.805194 14.701225 10.635348 -18.168568 3.153593 -0.489638 26.560824 0.530649 11.161217 -19.863628 178.498800 0.000000 -26.463200
10.440226 16.905654 3.366429 3.792574 34.294411 26.026167 -9.877457 0.203895 3.594778 1.065678 -3.510583 -46.270716 1.088664 2.361069 62.105614 2.698754 15.687503 -0.006150 2.212000 0.000000 -27.467000 9.981438 -2.707733 4.710853 14.079201 9.702308 -16.432894 3.067361 -0.335021 23.447285 0.804522 11.442135 -16.032227 178.887400 0.000000 -26.015400
10.597706 17.062631 3.533836 3.989268 34.099617 26.136347 -9.661920 0.237603 3.752665 0.616397 -3.733228 -45.823363 0.835758 2.068926 57.483489 2.651466 15.386967 0.390667 2.336300 0.000000 -27.773300 10.200504 -2.892870 4.600310 13.435105 8.723770 -14.670687 2.952861 -0.218967 20.331385 1.047652 11.706278 -11.796851 179.404900 0.000000 -24.302400
10.755892 17.217777 3.703784 4.249004 33.971757 26.227885 -9.453532 0.321105 3.895359 0.056980 -3.950708 -45.148089 0.580223 1.776350 52.554906 2.554624 14.850120 1.119441 2.499000 -0.000000 -28.341600 10.442468 -3.086499 4.466666 12.760765 7.688185 -12.917309 2.811276 -0.150443 17.290162 1.244402 11.959351 -7.175441 -179.933900 0.000000 -20.383800
10.914815 17.368432 3.875059 4.572875 33.912989 26.309015 -9.254542 0.451920 4.027453 -0.606123 -4.179869 -44.269740 0.317477 1.487909 47.367070 2.406904 14.106106 2.202591 2.693500 -0.000000 -29.187200 10.702932 -3.286901 4.307585 12.058582 6.599874 -11.209127 2.644475 -0.133769 14.394341 1.377323 12.184301 -2.196700 -179.118900 -0.000000 -13.293799
11.074733 17.511917 4.046453 4.949523 33.920439 26.386963 -9.067940 0.622781 4.153450 -1.354202 -4.425490 -43.229366 0.040416 1.208071 41.987658 2.210202 13.192831 3.639636 2.903600 -0.000000 -30.305400 10.972744 -3.492632 4.127751 11.343699 5.488028 -9.576491 2.452677 -0.167713 11.685132 1.429112 12.325810 3.142519 -178.152100 0.000000 -1.838200
11.236048 17.645885 4.216719 5.360595 33.995018 26.455800 -8.898436 0.820997 4.278148 -2.161807 -4.682622 -42.069165 -0.258329 0.938954 36.506034 1.969460 12.149572 5.402389 3.104300 -0.000000 -31.667700 11.238502 -3.693918 3.921851 10.648797 4.318661 -8.056614 2.253843 -0.234776 9.222996 1.393465 12.376132 8.563425 2.890500 0.000000 -12.067900
11.399286 17.768515 4.384728 5.785133 34.139218 26.496922 -8.752529 1.029651 4.405068 -3.002418 -4.933518 -40.831174 -0.584250 0.680982 31.033945 1.692012 11.005850 7.434569 3.263601 0.000000 -33.226500 11.486932 -3.875556 3.674160 10.002260 2.995797 -6.699369 2.076013 -0.310579 7.155035 1.290405 12.377829 13.483356 3.867100 0.000000 -24.368600
11.565152 17.878693 4.549433 6.187862 34.345924 26.485535 -8.638622 1.229267 4.530693 -3.848138 -5.132329 -39.570481 -0.938967 0.435775 25.706352 1.386583 9.766269 9.655518 3.342001 -0.000000 -34.926000 11.703123 -4.031811 3.380351 9.424528 1.482264 -5.531862 1.931993 -0.382026 5.620814 1.152171 12.292078 17.463276 4.639700 0.000000 -32.644900
11.734017 17.975736 4.710167 6.529587 34.590918 26.410984 -8.561789 1.402132 4.641959 -4.689478 -5.203500 -38.373072 -1.319896 0.207245 20.679394 1.061872 8.400037 11.965442 3.290600 -0.000000 -36.706500 11.874020 -4.171814 3.064608 8.930473 -0.120369 -4.534165 1.807613 -0.450221 4.597301 0.990484 11.914967 20.597260 5.108900 -0.000000 -38.838600
11.905762 18.059522 4.866759 6.789014 34.853686 26.263116 -8.523189 1.537512 4.720717 -5.552095 -5.062509 -37.314174 -1.720351 -0.000351 16.105632 0.725133 6.847761 14.261192 3.054800 0.000001 -38.541300 11.993586 -4.302182 2.744841 8.520882 -1.743536 -3.680816 1.694340 -0.514898 4.052804 0.813683 11.094660 22.910181 5.174400 -0.000000 -43.497700
12.079816 18.130302 5.019458 6.969886 35.117351 26.041699 -8.518185 1.633829 4.749317 -6.489919 -4.641122 -36.449655 -2.132461 -0.182709 12.107455 0.383185 5.046194 16.452800 2.586000 0.000001 -40.446400 12.065327 -4.426606 2.434009 8.174177 -3.341207 -2.945614 1.583159 -0.576845 3.947776 0.623998 9.748936 24.439519 4.786200 0.000000 -47.008500
12.255378 18.188594 5.168720 7.092223 35.370567 25.754728 -8.537507 1.696654 4.716254 -7.558286 -3.910148 -35.808883 -2.548043 -0.336492 8.763893 0.044056 2.957108 18.464437 1.855100 0.000000 -42.368701 12.099272 -4.544469 2.139519 7.854646 -4.886310 -2.304862 1.466128 -0.636644 4.239551 0.419045 7.880546 25.231263 3.965200 0.000000 -49.490000
12.431478 18.234981 5.315121 7.187202 35.608148 25.421476 -8.568461 1.735547 4.626544 -8.771733 -2.926992 -35.377586 -2.954206 -0.462106 6.074639 -0.277375 0.638340 20.270291 0.889600 0.000000 -44.367300 12.109892 -4.650273 1.861721 7.520017 -6.367463 -1.742967 1.337624 -0.694829 4.890990 0.194235 5.575039 25.340817 2.803100 0.000000 -50.982000
12.607385 18.269962 5.459011 7.278948 35.830570 25.062223 -8.599848 1.759502 4.499034 -10.087492 -1.817650 -35.108586 -3.333450 -0.562365 3.981914 -0.563255 -1.764429 21.866453 -0.230000 -0.000001 -46.418200 12.109982 -4.736090 1.596210 7.139082 -7.775243 -1.247954 1.196610 -0.751899 5.867151 -0.054278 2.972643 24.838695 1.437599 -0.000000 -51.459499
12.782630 18.293854 5.600556 7.375625 36.043576 24.691187 -8.626556 1.774876 4.356625 -11.423087 -0.721142 -34.946935 -3.667114 -0.638827 2.416730 -0.800082 -4.072702 23.251367 -1.396100 -0.000001 -48.421700 12.106859 -4.795732 1.338220 6.704206 -9.094794 -0.810953 1.047022 -0.809024 7.133343 -0.327496 0.233456 23.819683 0.019800 -0.000001 -50.956000
12.956973 18.306887 5.739631 7.459093 36.256744 24.301965 -8.653518 1.785129 4.204067 -12.710378 0.319174 -34.882646 -3.943226 -0.684492 1.392630 -0.988538 -6.211221 24.371382 -2.540200 0.000000 -50.087099 12.096720 -4.830134 1.090264 6.245381 -10.287028 -0.407252 0.896079 -0.867203 8.630776 -0.624335 -2.516892 22.415757 -1.330300 0.000000 -49.581800
13.130004 18.309199 5.876491 7.532677 36.474188 23.906433 -8.679360 1.792512 4.073509 -13.827334 1.125682 -34.810616 -4.144958 -0.705674 0.760416 -1.119329 -7.925108 25.289031 -3.506500 0.000000 -51.539000 12.087697 -4.836994 0.840111 5.758918 -11.364045 -0.044952 0.751286 -0.932669 10.350365 -0.934316 -5.114561 20.738810 -2.495500 0.000000 -47.535499
